<svg width="25.000000" height="25.000000" viewBox="0 0 25 25" fill="none" xmlns="http://www.w3.org/2000/svg" xmlns:xlink="http://www.w3.org/1999/xlink">
	<desc>
			Created with Pixso.
	</desc>
	<defs>
		<clipPath id="clip4_126">
			<rect width="25.000000" height="25.000000" fill="white" fill-opacity="0"/>
		</clipPath>
	</defs>
	<rect width="25.000000" height="25.000000" fill="#FFFFFF" fill-opacity="0"/>
	<g clip-path="url(#clip4_126)">
		<path d="M13.63 20.92L4.07 11.36C3.8 11.09 3.42 10.93 3.03 10.93C2.22 10.93 1.56 11.59 1.56 12.41C1.56 12.8 1.71 13.17 1.99 13.45L11.54 23C11.82 23.28 12.19 23.43 12.58 23.43C13.4 23.43 14.06 22.77 14.06 21.96C14.06 21.57 13.9 21.19 13.63 20.92Z" stroke="#FFFFFF" stroke-opacity="1.000000" stroke-width="1.000000"/>
		<path d="M4.07 15.53C3.8 15.25 3.42 15.1 3.03 15.1C2.22 15.1 1.56 15.76 1.56 16.57C1.56 16.96 1.71 17.34 1.99 17.61L7.38 23C7.65 23.28 8.03 23.43 8.42 23.43C9.23 23.43 9.89 22.77 9.89 21.96C9.89 21.57 9.74 21.19 9.46 20.92" stroke="#FFFFFF" stroke-opacity="1.000000" stroke-width="1.000000"/>
		<path d="M3.64 19.27L2.08 20.83L4.16 22.91L5.72 21.35" stroke="#FFFFFF" stroke-opacity="1.000000" stroke-width="1.000000"/>
		<path d="M11.36 4.07L20.92 13.63C21.19 13.9 21.57 14.06 21.96 14.06C22.77 14.06 23.43 13.4 23.43 12.58C23.43 12.19 23.28 11.82 23 11.54L13.45 1.99C13.17 1.71 12.8 1.56 12.41 1.56C11.59 1.56 10.93 2.22 10.93 3.03C10.93 3.42 11.09 3.8 11.36 4.07Z" stroke="#FFFFFF" stroke-opacity="1.000000" stroke-width="1.000000"/>
		<path d="M20.92 9.46C21.19 9.74 21.57 9.89 21.96 9.89C22.77 9.89 23.43 9.23 23.43 8.42C23.43 8.03 23.28 7.65 23 7.38L17.61 1.99C17.34 1.71 16.96 1.56 16.57 1.56C15.76 1.56 15.1 2.22 15.1 3.03C15.1 3.42 15.25 3.8 15.53 4.07" stroke="#FFFFFF" stroke-opacity="1.000000" stroke-width="1.000000"/>
		<path d="M21.35 5.72L22.91 4.16L20.83 2.08L19.27 3.64" stroke="#FFFFFF" stroke-opacity="1.000000" stroke-width="1.000000"/>
		<path d="M7.81 15.1L15.1 7.81" stroke="#FFFFFF" stroke-opacity="1.000000" stroke-width="1.000000"/>
		<path d="M9.89 17.18L17.18 9.89" stroke="#FFFFFF" stroke-opacity="1.000000" stroke-width="1.000000"/>
	</g>
</svg>
